<svg width="16" height="16" viewBox="0 0 16 16" fill="none" xmlns="http://www.w3.org/2000/svg">
<path d="M13 2H3C2.44772 2 2 2.44772 2 3V13C2 13.5523 2.44772 14 3 14H13C13.5523 14 14 13.5523 14 13V3C14 2.44772 13.5523 2 13 2Z" stroke="#005F82" stroke-width="1.33333" stroke-linejoin="round"/>
<path d="M2 9.33332L5.56437 6.06598C5.81297 5.83808 6.19263 5.83175 6.4487 6.05125L10.6667 9.66665" stroke="#005F82" stroke-width="1.33333" stroke-linecap="round" stroke-linejoin="round"/>
<path d="M9.33203 7.99997L10.9232 6.40881C11.1578 6.17424 11.5292 6.14784 11.7946 6.34691L13.9987 7.99997" stroke="#005F82" stroke-width="1.33333" stroke-linecap="round" stroke-linejoin="round"/>
<path d="M2 6.66669V10" stroke="#005F82" stroke-width="1.33333" stroke-linecap="round" stroke-linejoin="round"/>
<path d="M14 6.66669V10" stroke="#005F82" stroke-width="1.33333" stroke-linecap="round" stroke-linejoin="round"/>
</svg>
