<svg width="48" height="48" viewBox="0 0 48 48" fill="none" xmlns="http://www.w3.org/2000/svg">
<path d="M24 44C24 44 39 32 39 19C39 10.7157 32.2843 4 24 4C15.7157 4 9 10.7157 9 19C9 32 24 44 24 44Z" fill="#02BAFF" stroke="url(#paint0_linear_418_28155)" stroke-width="2.25" stroke-linejoin="round"/>
<path d="M24 25C27.3137 25 30 22.3137 30 19C30 15.6863 27.3137 13 24 13C20.6863 13 18 15.6863 18 19C18 22.3137 20.6863 25 24 25Z" fill="#EBEBEB" stroke="url(#paint1_linear_418_28155)" stroke-width="2.25" stroke-linejoin="round"/>
<defs>
<linearGradient id="paint0_linear_418_28155" x1="9" y1="24" x2="39" y2="24" gradientUnits="userSpaceOnUse">
<stop stop-color="#061B2E"/>
<stop offset="1" stop-color="#005F82"/>
</linearGradient>
<linearGradient id="paint1_linear_418_28155" x1="18" y1="19" x2="30" y2="19" gradientUnits="userSpaceOnUse">
<stop stop-color="#061B2E"/>
<stop offset="1" stop-color="#005F82"/>
</linearGradient>
</defs>
</svg>
