<svg width="20" height="20" viewBox="0 0 20 20" fill="none" xmlns="http://www.w3.org/2000/svg">
<path d="M3.33203 5C3.33203 4.30963 3.89168 3.75 4.58203 3.75H15.4154C16.1057 3.75 16.6654 4.30963 16.6654 5V9.58333H3.33203V5Z" stroke="#4D4D4D" stroke-width="0.833333" stroke-linecap="round" stroke-linejoin="round"/>
<path d="M2.5 14.5834V16.25" stroke="#4D4D4D" stroke-width="0.833333" stroke-linecap="round" stroke-linejoin="round"/>
<path d="M17.5 14.5834V16.25" stroke="#4D4D4D" stroke-width="0.833333" stroke-linecap="round" stroke-linejoin="round"/>
<path d="M12.0846 7.5H7.91797C7.22759 7.5 6.66797 8.05962 6.66797 8.75V9.58333H13.3346V8.75C13.3346 8.05962 12.775 7.5 12.0846 7.5Z" stroke="#4D4D4D" stroke-width="0.833333" stroke-linecap="round" stroke-linejoin="round"/>
<path d="M1.66797 10.8334C1.66797 10.143 2.22761 9.58337 2.91797 9.58337H17.0846C17.775 9.58337 18.3346 10.143 18.3346 10.8334V14.5834H1.66797V10.8334Z" stroke="#4D4D4D" stroke-width="0.833333" stroke-linecap="round" stroke-linejoin="round"/>
</svg>
